<?xml version="1.0" encoding="iso-8859-1"?>
<!DOCTYPE svg PUBLIC "-//W3C//DTD SVG 1.1//EN" "http://www.w3.org/Graphics/SVG/1.1/DTD/svg11.dtd">
<svg 
 version="1.1" xmlns="http://www.w3.org/2000/svg" xmlns:xlink="http://www.w3.org/1999/xlink" x="0px" y="0px" width="512px"
	 height="512px" viewBox="0 0 512 512" style="enable-background:new 0 0 512 512;" xml:space="preserve"
><g id="afcae5a789ccd549f9c6e2a2f813c706"><g></g><path style="display: inline;" d="M468.917,75.021H43.082c-23.421,0-42.583,19.163-42.583,42.583v276.792
		c0,23.421,19.162,42.584,42.583,42.584h63.875l21.292-85.167h255.502l21.291,85.167h63.875c23.421,0,42.584-19.163,42.584-42.584
		V117.604C511.501,94.184,492.338,75.021,468.917,75.021z M128.249,266.646c-23.513,0-42.584-19.066-42.584-42.583
		s19.071-42.584,42.584-42.584c23.519,0,42.585,19.067,42.585,42.584S151.768,266.646,128.249,266.646z M309.229,254.478H202.771
		v-60.831h106.458V254.478z M383.751,266.646c-23.513,0-42.584-19.066-42.584-42.583s19.071-42.584,42.584-42.584
		c23.516,0,42.583,19.067,42.583,42.584S407.267,266.646,383.751,266.646z M128.249,436.979l16.628-63.875h222.248l16.626,63.875
		H128.249z"></path></g></svg>